<?xml version="1.0" encoding="iso-8859-1"?>
<!-- Uploaded to: SVG Repo, www.svgrepo.com, Generator: SVG Repo Mixer Tools -->
<svg fill="#000000" version="1.1" id="Layer_1" xmlns="http://www.w3.org/2000/svg" xmlns:xlink="http://www.w3.org/1999/xlink" 
	 viewBox="0 0 496 496" xml:space="preserve">
<g>
	<g>
		<g>
			<path d="M352,160H32v160h320V160z M176,304H48v-32h128V304z M176,256H48v-32h128V256z M176,208H48v-32h128V208z M256,304h-64v-32
				h64V304z M256,256h-64v-32h64V256z M256,208h-64v-32h64V208z M336,304h-64v-32h64V304z M336,256h-64v-32h64V256z M336,208h-64
				v-32h64V208z"/>
			<path d="M192,80H32v48h160V80z M176,112H48V96h128V112z"/>
			<path d="M384,144V68.688L315.312,0H0v496h240h8h128h72h48V144H384z M384,256.552c31.52,3.96,56,30.872,56,63.448
				c0,19.72-9.008,37.728-24,49.72V336h-32V256.552z M384,352h16v32H224v-32h16v16h16v-16h16v16h16v-16h16v16h16v-16h16v16h16v-16
				h16v16h16V352z M320,27.312L356.688,64H320V27.312z M240,480H16V16h288v64h64v256H208v48h-16v64h48V480z M240,432h-32v-32h16v16
				h16v-16h16v16h16v-16h16v16h16v-16h16v16h16v-16h16v16h16v-16h16v32H240z M432,480h-56H256v-32h16v16h16v-16h16v16h16v-16h16v16
				h16v-16h16v16h16v-16h16v16h16v-16h16V480z M480,480h-32v-48h-48v-32h16v-11.008c24.728-14.312,40-40.208,40-68.992
				c0-41.408-31.632-75.568-72-79.592V160h96V480z"/>
			<rect x="32" y="336" width="144" height="16"/>
			<rect x="208" y="112" width="112" height="16"/>
			<rect x="336" y="112" width="16" height="16"/>
		</g>
	</g>
</g>
</svg>